<?xml version="1.0" encoding="UTF-8"?><svg xmlns="http://www.w3.org/2000/svg" viewBox="0 0 247.79 235.2"><defs><style>.d{fill:#e11c8f;}.e{fill:#0a86ff;}</style></defs><g id="a"/><g id="b"><g id="c"><g><path d="M104.61,106v66h-23.8v-13.2c-9.6,11.4-20.2,16.2-36.8,16.2-23.2,0-36-14.8-36-32.8,0-15,6.2-26.2,23.6-32.6,10.4-3.8,25.9-6.1,46.2-9.1-1.1-10.1-7-14.7-19.8-14.7-8,0-18.2,3.4-21.6,13.2l-24.6-7.8c5.4-17.8,20.2-30.2,46.2-30.2,19,0,34.6,5.2,42.2,19.6,4.2,8,4.4,15.6,4.4,25.4Zm-27,16.5c-18.2,3.1-25.6,4.6-31.8,6.9-8,3.2-11.2,7-11.2,12.4,0,7.4,5.8,11.8,15.2,11.8,15,0,22.8-9.8,25-14.4,2.3-4.7,2.7-11.5,2.8-16.7Z"/><path class="d" d="M116.56,155.76c0-10.85,7.46-18.52,17.98-18.52s17.79,7.48,17.91,18.52c0,10.71-7.17,18.44-17.98,18.44s-17.94-7.73-17.91-18.44Z"/><path d="M164.6,24.99h27.2v24h-27.2V24.99Zm0,39h27.2v108.01h-27.2V63.99Z"/><path class="e" d="M210,156c0-10.6,7.6-18.6,17.8-18.6s17.8,8,17.8,18.6-7.6,18.4-17.8,18.4-17.8-8-17.8-18.4Z"/></g></g></g></svg>