<?xml version="1.0" encoding="UTF-8"?><svg xmlns="http://www.w3.org/2000/svg" viewBox="0 0 839.58 235.2"><defs><style>.d{fill:#e11c8f;}.e{fill:#0a86ff;}</style></defs><g id="a"/><g id="b"><g id="c"><g><path d="M77.4,63.99v25.4c-6-1.8-14.8-1.2-21.2,1.8-9.6,4.4-14.8,13.2-14.8,25.6v55.2H14V63.99h24v17.4c2.8-5,6.6-9.3,11.6-12.2,7.8-4.8,18-6.4,27.8-5.2Z"/><path d="M133,149.6c10.6,0,18.4-4.8,22.4-13.6l27.2,7.8c-8.2,19.8-27.2,31.2-48,31.2-33.2,0-56.2-23.2-56.2-55.6,0-35.4,22.6-58.4,54.6-58.4,34,0,53.8,25.4,50.5,64.6H107.7c2,15.4,10.6,24,25.3,24Zm-24.6-44.2h47.6c-1.9-14.6-8.7-20.8-21.8-20.8-14.6,0-23,7.1-25.8,20.8Z"/><path d="M190,139.6l27.8-4.2c2.2,10.2,10.4,16.2,22.4,16.2,9.8,0,15.4-4,15.4-10.8,0-6.4-2.6-7.8-26-14-26.4-6.8-36-15.2-36-31.8,0-20.8,16.8-34,43-34s43,12.4,45.8,32l-27.8,5c-1-8-7.2-12.8-17.4-13.6-10-.6-16.6,3-16.6,9.2,0,5.6,3.6,7.4,28.8,13.8,24.6,6.4,34,15.2,34,32,0,22.2-17,35.6-45.2,35.6s-44.6-12.8-48.2-35.4Z"/><path d="M394.6,63.99v108.01h-24v-11.1c-7.8,8.7-19.5,14.3-35,14.3-42.2,0-42.2-41.6-42.2-50.6V63.99h27.6v51c0,9.8,0,34.6,23.2,34.6,9.4,0,23-4,23-30.8V63.99h27.4Z"/><path d="M569.8,101v71h-27.2v-63.8c0-14.2-7.2-22.6-19-22.6s-18.8,8.6-18.8,21v65.4h-27.2v-63.8c0-14.2-7.2-22.6-19-22.6s-18.8,8.6-18.8,21v65.4h-27.4V63.99h24v11.8c7.2-8.9,18.6-14.4,31.6-14.4,15.5,0,25.8,6.7,31.4,16.8,7-10.4,19.1-16.8,33-16.8,24.6,0,37.4,16,37.4,39.6Z"/><path d="M667.09,142h-54.2l-9.1,30h-28l44-144.01h40.6l44,144.01h-28l-9.3-30Zm-7.8-25.4l-19.5-63.1-19.2,63.1h38.7Z"/><path class="d" d="M708.35,155.76c0-10.85,7.46-18.52,17.98-18.52s17.79,7.48,17.91,18.52c0,10.71-7.17,18.44-17.98,18.44s-17.94-7.73-17.91-18.44Z"/><path d="M756.39,27.99h27.2V172h-27.2V27.99Z"/><path class="e" d="M801.79,156c0-10.6,7.6-18.6,17.8-18.6s17.8,8,17.8,18.6-7.6,18.4-17.8,18.4-17.8-8-17.8-18.4Z"/></g></g></g></svg>